<?xml version="1.0" encoding="UTF-8" ?>
<!DOCTYPE svg PUBLIC "-//W3C//DTD SVG 1.1//EN" "http://www.w3.org/Graphics/SVG/1.1/DTD/svg11.dtd">
<svg width="512pt" height="512pt" viewBox="0 0 512 512" version="1.1" xmlns="http://www.w3.org/2000/svg">
<g id="#0099cfff">
<path fill="#0099cf" opacity="1.00" d=" M 207.12 46.22 C 238.32 41.11 270.66 42.88 301.04 51.67 C 325.09 58.60 347.86 69.88 368.03 84.69 C 366.84 85.93 364.76 86.78 364.88 88.76 C 363.90 89.65 362.56 90.34 362.90 91.90 C 362.76 92.02 362.49 92.25 362.35 92.37 C 361.37 93.38 359.70 94.01 359.88 95.68 C 358.89 97.06 356.77 97.78 356.87 99.72 C 355.90 100.64 354.55 101.34 354.90 102.91 C 354.70 103.08 354.30 103.42 354.10 103.58 C 352.93 104.36 351.50 105.21 351.92 106.84 C 351.78 106.97 351.48 107.24 351.34 107.38 C 350.35 108.39 348.68 109.04 348.88 110.72 C 347.91 111.62 346.57 112.34 346.90 113.89 C 346.66 114.08 346.18 114.44 345.95 114.62 C 344.82 115.43 343.47 116.29 343.85 117.88 C 343.73 117.99 343.50 118.20 343.39 118.31 C 342.42 119.37 340.67 119.99 340.89 121.70 C 339.92 122.62 338.57 123.33 338.90 124.90 C 338.66 125.08 338.19 125.44 337.95 125.62 C 336.85 126.43 335.47 127.26 335.85 128.86 C 335.62 129.05 335.16 129.43 334.93 129.62 C 333.84 130.44 332.48 131.27 332.84 132.84 C 332.56 133.09 331.99 133.58 331.71 133.83 L 330.96 134.28 L 331.05 135.18 L 330.96 135.73 C 329.64 136.84 327.36 137.85 327.80 139.90 C 327.58 140.08 327.15 140.44 326.94 140.62 C 325.84 141.44 324.48 142.27 324.84 143.85 C 324.55 144.10 323.98 144.58 323.70 144.83 L 322.95 145.29 L 323.06 146.19 L 322.97 146.74 C 321.88 147.80 319.34 148.78 319.93 150.59 L 319.92 150.81 C 318.56 151.85 316.30 152.88 316.79 154.94 C 316.52 155.15 315.96 155.59 315.69 155.81 L 314.94 156.29 L 315.15 157.16 L 314.90 157.67 C 314.55 158.02 313.84 158.71 313.48 159.05 C 293.57 144.17 268.86 135.85 244.00 135.55 C 222.53 135.11 200.99 140.62 182.36 151.31 C 158.67 164.73 139.81 186.47 129.89 211.83 C 120.41 235.62 118.98 262.47 125.58 287.19 C 131.91 310.95 145.77 332.58 164.61 348.36 C 184.02 364.67 208.69 374.69 234.02 376.21 C 261.65 378.17 289.82 370.13 312.26 353.90 C 327.47 374.71 342.36 395.76 357.40 416.69 C 360.38 420.64 362.92 424.94 366.30 428.59 L 366.30 428.59 C 334.70 451.30 296.82 465.35 257.95 467.99 C 211.80 471.68 164.58 459.58 125.88 434.16 C 104.24 420.01 85.17 401.91 69.97 381.00 C 49.60 353.10 36.22 320.13 31.46 285.91 C 26.69 252.09 30.07 217.09 41.55 184.90 C 54.62 147.82 78.35 114.64 109.03 90.07 C 137.25 67.37 171.37 52.06 207.12 46.22 Z" />
</g>
<g id="#ffffffff">
<path fill="#ffffff" opacity="1.00" d=" M 384.60 61.19 C 384.77 61.43 385.11 61.92 385.28 62.16 L 385.25 62.21 C 378.90 70.29 373.04 78.68 367.01 86.99 C 365.17 88.27 364.97 90.88 362.90 91.90 C 362.56 90.34 363.90 89.65 364.88 88.76 C 364.76 86.78 366.84 85.93 368.03 84.69 L 367.99 83.15 C 369.33 82.14 371.60 81.13 370.96 79.13 C 372.22 78.65 373.58 77.75 372.97 76.09 C 374.19 75.25 376.56 74.22 375.97 72.14 C 377.29 71.21 379.68 70.09 378.95 68.13 C 380.21 67.66 381.59 66.75 380.97 65.10 C 382.37 64.35 384.02 63.09 384.60 61.19 Z" />
<path fill="#ffffff" opacity="1.00" d=" M 359.88 95.68 C 359.70 94.01 361.37 93.38 362.35 92.37 L 362.02 93.82 C 359.43 96.67 357.62 100.20 354.90 102.91 C 354.55 101.34 355.90 100.64 356.87 99.72 C 356.77 97.78 358.89 97.06 359.88 95.68 Z" />
<path fill="#ffffff" opacity="1.00" d=" M 348.88 110.72 C 348.68 109.04 350.35 108.39 351.34 107.38 C 350.61 109.84 348.64 112.01 346.90 113.89 C 346.57 112.34 347.91 111.62 348.88 110.72 Z" />
<path fill="#ffffff" opacity="1.00" d=" M 343.85 117.88 C 343.47 116.29 344.82 115.43 345.95 114.62 C 346.12 115.96 345.25 117.62 343.85 117.88 Z" />
<path fill="#ffffff" opacity="1.00" d=" M 340.89 121.70 C 340.67 119.99 342.42 119.37 343.39 118.31 C 342.67 120.80 340.64 122.98 338.90 124.90 C 338.57 123.33 339.92 122.62 340.89 121.70 Z" />
<path fill="#ffffff" opacity="1.00" d=" M 335.85 128.86 C 335.47 127.26 336.85 126.43 337.95 125.62 C 338.13 126.93 337.26 128.64 335.85 128.86 Z" />
<path fill="#ffffff" opacity="1.00" d=" M 332.84 132.84 C 332.48 131.27 333.84 130.44 334.93 129.62 C 335.14 130.92 334.27 132.67 332.84 132.84 Z" />
<path fill="#ffffff" opacity="1.00" d=" M 182.36 151.31 C 200.99 140.62 222.53 135.11 244.00 135.55 C 268.86 135.85 293.57 144.17 313.48 159.05 C 313.84 158.71 314.55 158.02 314.90 157.67 C 301.50 176.22 287.76 194.70 274.30 213.18 C 269.14 219.79 264.65 226.96 259.23 233.31 C 258.85 235.54 256.33 236.45 255.76 238.64 C 251.89 243.10 249.27 248.14 245.21 252.32 C 245.00 254.25 243.10 255.18 241.88 256.47 C 244.42 258.11 245.02 260.96 247.29 262.80 C 249.76 267.09 253.08 270.81 255.83 274.99 C 292.02 325.02 328.37 375.28 364.43 425.50 C 365.18 426.45 366.72 427.12 366.30 428.59 C 362.92 424.94 360.38 420.64 357.40 416.69 C 342.36 395.76 327.47 374.71 312.26 353.90 C 289.82 370.13 261.65 378.17 234.02 376.21 C 208.69 374.69 184.02 364.67 164.61 348.36 C 145.77 332.58 131.91 310.95 125.58 287.19 C 118.98 262.47 120.41 235.62 129.89 211.83 C 139.81 186.47 158.67 164.73 182.36 151.31 Z" />
<path fill="#ffffff" opacity="1.00" d=" M 327.80 139.90 C 327.36 137.85 329.64 136.84 330.96 135.73 C 330.47 137.28 329.63 139.59 327.80 139.90 Z" />
<path fill="#ffffff" opacity="1.00" d=" M 324.84 143.85 C 324.48 142.27 325.84 141.44 326.94 140.62 C 327.14 141.93 326.26 143.65 324.84 143.85 Z" />
<path fill="#ffffff" opacity="1.00" d=" M 319.93 150.59 C 319.34 148.78 321.88 147.80 322.97 146.74 C 322.69 148.31 321.34 149.94 319.93 150.59 Z" />
<path fill="#ffffff" opacity="1.00" d=" M 316.79 154.94 C 316.30 152.88 318.56 151.85 319.92 150.81 C 319.59 152.37 318.35 154.45 316.79 154.94 Z" />
</g>
<g id="#61dd74ff">
<path fill="#61dd74" opacity="1.00" d=" M 367.01 86.99 C 373.04 78.68 378.90 70.29 385.25 62.21 C 425.24 91.68 455.76 133.81 471.10 181.06 C 485.11 223.75 486.75 270.39 475.96 313.99 C 462.48 369.01 428.77 418.94 382.50 451.64 C 380.09 447.49 376.76 443.92 374.32 439.72 C 371.93 438.05 370.98 433.93 368.55 432.47 C 368.37 430.89 366.51 430.16 366.30 428.59 L 366.30 428.59 C 366.72 427.12 365.18 426.45 364.43 425.50 C 328.37 375.28 292.02 325.02 255.83 274.99 C 253.08 270.81 249.76 267.09 247.29 262.80 C 245.02 260.96 244.42 258.11 241.88 256.47 C 243.10 255.18 245.00 254.25 245.21 252.32 C 249.27 248.14 251.89 243.10 255.76 238.64 C 256.33 236.45 258.85 235.54 259.23 233.31 C 264.65 226.96 269.14 219.79 274.30 213.18 C 287.76 194.70 301.50 176.22 314.90 157.67 L 315.15 157.16 L 315.90 156.67 L 315.69 155.81 C 315.96 155.59 316.52 155.15 316.79 154.94 C 318.35 154.45 319.59 152.37 319.92 150.81 L 319.93 150.59 C 321.34 149.94 322.69 148.31 322.97 146.74 L 323.06 146.19 L 323.87 145.73 L 323.70 144.83 C 323.98 144.58 324.55 144.10 324.84 143.85 C 326.26 143.65 327.14 141.93 326.94 140.62 C 327.15 140.44 327.58 140.08 327.80 139.90 C 329.63 139.59 330.47 137.28 330.96 135.73 L 331.05 135.18 L 331.86 134.74 L 331.71 133.83 C 331.99 133.58 332.56 133.09 332.84 132.84 C 334.27 132.67 335.14 130.92 334.93 129.62 C 335.16 129.43 335.62 129.05 335.85 128.86 C 337.26 128.64 338.13 126.93 337.95 125.62 C 338.19 125.44 338.66 125.08 338.90 124.90 C 340.64 122.98 342.67 120.80 343.39 118.31 C 343.50 118.20 343.73 117.99 343.85 117.88 C 345.25 117.62 346.12 115.96 345.95 114.62 C 346.18 114.44 346.66 114.08 346.90 113.89 C 348.64 112.01 350.61 109.84 351.34 107.38 C 351.48 107.24 351.78 106.97 351.92 106.84 C 353.30 106.54 354.70 105.08 354.10 103.58 C 354.30 103.42 354.70 103.08 354.90 102.91 C 357.62 100.20 359.43 96.67 362.02 93.82 L 362.35 92.37 C 362.49 92.25 362.76 92.02 362.90 91.90 C 364.97 90.88 365.17 88.27 367.01 86.99 Z" />
</g>
<g id="#cff5d6ff">
<path fill="#cff5d6" opacity="1.00" d=" M 351.92 106.84 C 351.50 105.21 352.93 104.36 354.10 103.58 C 354.70 105.08 353.30 106.54 351.92 106.84 Z" />
</g>
<g id="#dff8e3ff">
<path fill="#dff8e3" opacity="1.00" d=" M 330.96 134.28 L 331.71 133.83 L 331.86 134.74 L 331.05 135.18 L 330.96 134.28 Z" />
<path fill="#dff8e3" opacity="1.00" d=" M 322.95 145.29 L 323.70 144.83 L 323.87 145.73 L 323.06 146.19 L 322.95 145.29 Z" />
<path fill="#dff8e3" opacity="1.00" d=" M 314.94 156.29 L 315.69 155.81 L 315.90 156.67 L 315.15 157.16 L 314.94 156.29 Z" />
</g>
</svg>
